PathFileType	4	(X/Y/Z)	/Users/itak/Documents/Research/Walk-IL/dataset/trc/00429_00167.trc
DataRate	CameraRate	NumFrames	NumMarkers	Units	OrigDataRate	OrigDataStartFrame	OrigNumFrames
100.000000	100.000000	4	53	mm	100.000000	84	673
Frame#	Time	RPSI			LPSI			L3			STRN			T10			C7			CLAV			RBAK			LBAK			LSHO			LUPA			LAEL			LAOL			LWTS			LWPS			LFRA			LIFD			LHPS			LHTS			RSHO			RUPA			RAEL			RAOL			RWTS			RWPS			RFRA			RIFD			RHTS			RHPS			RBHD			LFHD			RFHD			LBHD			LHIP			RHIP			RASI			LASI			LKNE			LTHI			LANK			LTIP			LTOE			LMT1			LMT5			LHEE			RKNE			RTHI			RANK			RTIP			RTOE			RMT1			RMT5			RHEE			
		X1	Y1	Z1	X2	Y2	Z2	X3	Y3	Z3	X4	Y4	Z4	X5	Y5	Z5	X6	Y6	Z6	X7	Y7	Z7	X8	Y8	Z8	X9	Y9	Z9	X10	Y10	Z10	X11	Y11	Z11	X12	Y12	Z12	X13	Y13	Z13	X14	Y14	Z14	X15	Y15	Z15	X16	Y16	Z16	X17	Y17	Z17	X18	Y18	Z18	X19	Y19	Z19	X20	Y20	Z20	X21	Y21	Z21	X22	Y22	Z22	X23	Y23	Z23	X24	Y24	Z24	X25	Y25	Z25	X26	Y26	Z26	X27	Y27	Z27	X28	Y28	Z28	X29	Y29	Z29	X30	Y30	Z30	X31	Y31	Z31	X32	Y32	Z32	X33	Y33	Z33	X34	Y34	Z34	X35	Y35	Z35	X36	Y36	Z36	X37	Y37	Z37	X38	Y38	Z38	X39	Y39	Z39	X40	Y40	Z40	X41	Y41	Z41	X42	Y42	Z42	X43	Y43	Z43	X44	Y44	Z44	X45	Y45	Z45	X46	Y46	Z46	X47	Y47	Z47	X48	Y48	Z48	X49	Y49	Z49	X50	Y50	Z50	X51	Y51	Z51	X52	Y52	Z52	X53	Y53	Z53	

85	0.84	-1146.67236328125	980.3930053710938	-456.5633544921875	-1066.742919921875	975.8655395507812	-573.48779296875	-1100.52978515625	1065.219604492188	-494.1024475097656	-871.3409423828125	1252.030029296875	-364.4757385253906	-1116.435913085938	1188.752685546875	-508.4468994140625	-1067.7607421875	1456.935791015625	-465.8904724121094	-900.0380249023438	1366.214233398438	-385.7509155273438	-1169.984985351562	1336.985473632812	-415.364501953125	-1046.600830078125	1410.318969726562	-568.7548828125	-915.4198608398438	1426.291259765625	-584.2073974609375	-875.5402221679688	1307.031494140625	-674.9454956054688	-839.063720703125	1090.837768554688	-689.0402221679688	-940.3760986328125	1074.507446289062	-674.6646728515625	-788.5720825195312	892.2322998046875	-603.6891479492188	-798.8477783203125	874.474365234375	-675.3147583007812	-814.4620361328125	1003.958129882812	-684.2330932617188	-781.8200073242188	723.1338500976562	-601.1460571289062	-792.3473510742188	794.0122680664062	-668.6355590820312	-769.2449340820312	802.9421997070312	-601.574951171875	-1084.715087890625	1423.646484375	-291.3255615234375	-1136.735595703125	1362.926391601562	-232.0190887451172	-1159.098388671875	1076.13232421875	-177.6208801269531	-1191.209350585938	1058.727783203125	-235.0100860595703	-1043.570434570312	878.451171875	-174.2745666503906	-1126.799194335938	861.6763305664062	-150.3489990234375	-1158.170532226562	1017.734680175781	-166.9642944335938	-1041.316284179688	720.1989135742188	-154.8294982910156	-1033.059814453125	780.3609619140625	-150.8517913818359	-1107.89208984375	776.8177490234375	-140.0445709228516	-1044.735229492188	1648.741088867188	-354.2030029296875	-849.5612182617188	1671.234497070312	-420.9551391601562	-915.641357421875	1670.6552734375	-307.8719787597656	-968.7706909179688	1654.25439453125	-515.2643432617188	-900.9562377929688	857.5288696289062	-600.65771484375	-1134.083862304688	866.7109985351562	-280.9862976074219	-1010.891662597656	899.0730590820312	-271.6067810058594	-856.2615356445312	890.88671875	-478.4747314453125	-951.4988403320312	434.7963256835938	-565.9028930664062	-907.7119750976562	584.1641845703125	-574.6104125976562	-1023.767211914062	33.572509765625	-582.1325073242188	-959.2930297851562	283.5459594726562	-570.5667724609375	-888.4393920898438	43.5129280090332	-392.2374877929688	-962.6992797851562	50.89542770385742	-415.568603515625	-892.8734130859375	42.27558135986328	-506.5587158203125	-1098.024291992188	39.06862640380859	-576.4652099609375	-1120.745971679688	465.5621337890625	-309.7439575195312	-1108.923828125	727.7381591796875	-253.7563781738281	-1154.379638671875	42.7581901550293	-342.1433410644531	-1134.394897460938	320.4375915527344	-304.62548828125	-945.1214599609375	47.70242309570312	-277.7188110351562	-982.7207641601562	53.49695587158203	-340.1581420898438	-1050.235229492188	49.22690963745117	-255.8428802490234	-1189.398803710938	35.65480422973633	-415.2005615234375	
86	0.85	-1146.315673828125	980.4312744140625	-456.7663879394531	-1066.520263671875	975.7976684570312	-573.8074951171875	-1100.169799804688	1065.275024414062	-494.3992309570312	-870.5656127929688	1251.912109375	-365.0189514160156	-1115.902099609375	1188.817504882812	-508.8106689453125	-1066.913330078125	1456.963623046875	-466.3063049316406	-899.2080688476562	1366.12109375	-386.2695922851562	-1169.195678710938	1337.100341796875	-415.7025756835938	-1045.828125	1410.360595703125	-569.1975708007812	-914.6710815429688	1426.24853515625	-584.68017578125	-874.7543334960938	1307.055908203125	-675.4306030273438	-838.11767578125	1090.94091796875	-689.6028442382812	-939.4581909179688	1074.497436523438	-675.3557739257812	-787.5325927734375	892.3591918945312	-604.2653198242188	-797.7311401367188	874.5997924804688	-675.9063720703125	-813.4684448242188	1004.044677734375	-684.8131103515625	-780.5541381835938	723.248046875	-601.6846923828125	-791.1473999023438	794.1660766601562	-669.210205078125	-768.1156005859375	803.0859375	-602.1585693359375	-1083.744384765625	1423.636596679688	-291.6944274902344	-1135.754272460938	1362.957641601562	-232.4099731445312	-1158.34423828125	1076.196166992188	-177.9693756103516	-1190.48193359375	1058.778076171875	-235.3598480224609	-1042.827514648438	878.5046997070312	-174.6355895996094	-1126.070678710938	861.736328125	-150.6627960205078	-1157.437622070312	1017.79638671875	-167.3114776611328	-1040.562622070312	720.2401123046875	-155.2076721191406	-1032.322143554688	780.42578125	-151.1979522705078	-1107.158325195312	776.8784790039062	-140.3460845947266	-1043.755249023438	1648.686645507812	-354.5530090332031	-848.594970703125	1671.14892578125	-421.3954772949219	-914.630859375	1670.51318359375	-308.290771484375	-967.8799438476562	1654.213256835938	-515.6693725585938	-900.59326171875	857.472412109375	-600.91455078125	-1133.635131835938	866.8016357421875	-281.2050476074219	-1010.475280761719	899.0980224609375	-271.9278259277344	-856.0093994140625	890.8021240234375	-478.9290771484375	-951.0739135742188	434.6317443847656	-565.8836059570312	-907.3287353515625	584.0795288085938	-574.70751953125	-1023.743286132812	33.5229606628418	-582.1939697265625	-959.1541748046875	283.3240051269531	-570.5634155273438	-888.518798828125	43.57694244384766	-392.2933044433594	-962.7510375976562	50.88999938964844	-415.6066284179688	-892.9234008789062	42.30739212036133	-506.5500183105469	-1098.018188476562	38.9857063293457	-576.5250854492188	-1120.666870117188	465.627197265625	-309.8970642089844	-1108.635131835938	727.8386840820312	-253.881103515625	-1154.404174804688	42.74903106689453	-342.1105346679688	-1134.399169921875	320.5156860351562	-304.661865234375	-945.133544921875	47.70741271972656	-277.7200622558594	-982.7395629882812	53.53049468994141	-340.1305236816406	-1050.2587890625	49.21320343017578	-255.8153686523438	-1189.405029296875	35.66162490844727	-415.1864624023438	
87	0.86	-1145.969604492188	980.4638061523438	-456.9625854492188	-1066.247802734375	975.7313232421875	-574.1079711914062	-1099.80078125	1065.328125	-494.6905517578125	-869.8064575195312	1251.797485351562	-365.5648803710938	-1115.389892578125	1188.875610351562	-509.1539611816406	-1066.0830078125	1456.988647460938	-466.7336120605469	-898.3878173828125	1366.033569335938	-386.8018798828125	-1168.418212890625	1337.2265625	-416.0297241210938	-1045.084106445312	1410.381713867188	-569.6422119140625	-913.9474487304688	1426.19580078125	-585.1682739257812	-874.0038452148438	1307.0546875	-675.9288940429688	-837.194580078125	1091.026977539062	-690.1910400390625	-938.5699462890625	1074.480102539062	-676.0703125	-786.484375	892.4807739257812	-604.8577880859375	-796.612060546875	874.7167358398438	-676.5106811523438	-812.4855346679688	1004.1279296875	-685.4117431640625	-779.2413940429688	723.3590698242188	-602.2161865234375	-789.9353637695312	794.3051147460938	-669.7911987304688	-766.9860229492188	803.2116088867188	-602.75537109375	-1082.777099609375	1423.646850585938	-292.06396484375	-1134.78125	1363.0126953125	-232.7962951660156	-1157.584228515625	1076.279418945312	-178.3121643066406	-1189.774047851562	1058.846557617188	-235.6849670410156	-1042.090942382812	878.5634155273438	-175.0085296630859	-1125.347412109375	861.8115844726562	-150.9822235107422	-1156.706665039062	1017.873901367188	-167.6556243896484	-1039.822387695312	720.2792358398438	-155.6106262207031	-1031.5908203125	780.4959106445312	-151.5768585205078	-1106.42724609375	776.9453125	-140.6702270507812	-1042.782592773438	1648.639282226562	-354.9212951660156	-847.62890625	1671.052124023438	-421.8529052734375	-913.6253662109375	1670.360473632812	-308.7291870117188	-966.9843139648438	1654.169555664062	-516.0868530273438	-900.2094116210938	857.4161376953125	-601.1344604492188	-1133.2216796875	866.8858032226562	-281.4126892089844	-1010.03564453125	899.1513671875	-272.1809692382812	-855.7328491210938	890.7372436523438	-479.2998352050781	-950.6223754882812	434.4932556152344	-565.8528442382812	-906.9210815429688	583.9977416992188	-574.7499389648438	-1023.71484375	33.47771835327148	-582.2529907226562	-958.9616088867188	283.1331481933594	-570.5237426757812	-888.6008911132812	43.63679122924805	-392.3404541015625	-962.8074340820312	50.87599563598633	-415.6361389160156	-892.9874877929688	42.35364151000977	-506.5293884277344	-1098.010131835938	38.90422439575195	-576.5853881835938	-1120.600952148438	465.6881408691406	-310.0515441894531	-1108.396728515625	727.9395751953125	-254.0111999511719	-1154.433349609375	42.7394905090332	-342.0726318359375	-1134.417724609375	320.5898132324219	-304.6947937011719	-945.1459350585938	47.71284866333008	-277.7175598144531	-982.7611083984375	53.56853103637695	-340.0959167480469	-1050.284057617188	49.19854354858398	-255.7848663330078	-1189.4072265625	35.66654968261719	-415.1737670898438	
88	0.87	-1145.62158203125	980.48974609375	-457.1584777832031	-1065.927612304688	975.67919921875	-574.3751220703125	-1099.414794921875	1065.37451171875	-494.968505859375	-869.0625610351562	1251.6875	-366.1092224121094	-1114.8955078125	1188.923095703125	-509.4860229492188	-1065.272705078125	1457.006103515625	-467.1686706542969	-897.5787963867188	1365.951416015625	-387.3479614257812	-1167.654663085938	1337.358642578125	-416.3431091308594	-1044.370239257812	1410.372924804688	-570.0865478515625	-913.253662109375	1426.128173828125	-585.6723022460938	-873.2938232421875	1307.024291992188	-676.4409790039062	-836.2977294921875	1091.089233398438	-690.8033447265625	-937.720703125	1074.44921875	-676.79736328125	-785.423583984375	892.5931396484375	-605.4641723632812	-795.49658203125	874.8177490234375	-677.1271362304688	-811.5173950195312	1004.203918457031	-686.0281982421875	-777.8854370117188	723.4641723632812	-602.7449951171875	-788.71484375	794.4246215820312	-670.3785400390625	-765.8504638671875	803.3167724609375	-603.3605346679688	-1081.817260742188	1423.67578125	-292.4355163574219	-1133.818237304688	1363.084594726562	-233.1724243164062	-1156.817260742188	1076.37841796875	-178.6488494873047	-1189.081298828125	1058.931274414062	-235.9861450195312	-1041.363525390625	878.6243896484375	-175.3892974853516	-1124.627319335938	861.895751953125	-151.3097534179688	-1155.97412109375	1017.964538574219	-167.994140625	-1039.098510742188	720.3142700195312	-156.03466796875	-1030.865966796875	780.5634155273438	-151.9898986816406	-1105.699096679688	777.0111083984375	-141.0207061767578	-1041.814819335938	1648.59765625	-355.3088684082031	-846.661376953125	1670.941284179688	-422.3299255371094	-912.6244506835938	1670.197631835938	-309.1889038085938	-966.0853881835938	1654.123901367188	-516.51904296875	-899.794921875	857.352294921875	-601.319091796875	-1132.84228515625	866.9654541015625	-281.6022338867188	-1009.595275878906	899.2247314453125	-272.3695983886719	-855.4209594726562	890.688720703125	-479.5775451660156	-950.17529296875	434.3827209472656	-565.8167114257812	-906.4992065429688	583.9197387695312	-574.7490234375	-1023.687561035156	33.43835830688477	-582.3067016601562	-958.7255859375	282.9800415039062	-570.455078125	-888.6824340820312	43.69009780883789	-392.3762512207031	-962.8656005859375	50.85543823242188	-415.6560974121094	-893.06201171875	42.41006851196289	-506.4996032714844	-1098.002563476562	38.8275032043457	-576.6451416015625	-1120.541015625	465.7459716796875	-310.2051086425781	-1108.197875976562	728.0397338867188	-254.1507415771484	-1154.464599609375	42.73084259033203	-342.0321655273438	-1134.444213867188	320.6583251953125	-304.7236633300781	-945.1575927734375	47.71821212768555	-277.7116088867188	-982.7843017578125	53.60908126831055	-340.0563354492188	-1050.308715820312	49.18442535400391	-255.7541198730469	-1189.405395507812	35.67058563232422	-415.1643371582031	
